<svg width="90"  viewBox="0 0 160 155" fill="none" xmlns="http://www.w3.org/2000/svg">
<path d="M159.187 77.5C159.187 120.302 123.552 155 79.5934 155C35.6351 155 0 120.302 0 77.5C0 34.6978 35.6351 0 79.5934 0C123.552 0 159.187 34.6978 159.187 77.5ZM70.3869 118.536L129.44 61.0356C131.445 59.0831 131.445 55.9172 129.44 53.9647L122.178 46.8937C120.173 44.9409 116.921 44.9409 114.916 46.8937L66.7557 93.7869L44.2709 71.8934C42.2657 69.9409 39.0142 69.9409 37.0087 71.8934L29.7467 78.9644C27.7415 80.9169 27.7415 84.0828 29.7467 86.0353L63.1246 118.535C65.1302 120.488 68.3813 120.488 70.3869 118.536Z" fill="white"/>
</svg>
                    