<svg width="1" height="1" viewBox="0 0 21 19" fill="none" xmlns="http://www.w3.org/2000/svg">
<path d="M10.4366 13.2731C12.5072 13.2731 14.1858 11.7201 14.1858 9.80452C14.1858 7.88888 12.5072 6.33594 10.4366 6.33594C8.36604 6.33594 6.6875 7.88888 6.6875 9.80452C6.6875 11.7201 8.36604 13.2731 10.4366 13.2731Z" stroke="#484848" stroke-width="2.5" stroke-linecap="round" stroke-linejoin="round"/>
<path d="M2 13.2729V6.33573C2 3.94118 4.09818 2 6.68641 2H14.1847C16.7729 2 18.8711 3.94118 18.8711 6.33573V13.2729C18.8711 15.6674 16.7729 17.6086 14.1847 17.6086H6.68641C4.09818 17.6086 2 15.6674 2 13.2729Z" stroke="#484848" stroke-width="2.5"/>
<path d="M15.5918 5.04521L15.6024 5.03418" stroke="#484848" stroke-width="2.5" stroke-linecap="round" stroke-linejoin="round"/>
</svg>
