<svg width="89"  viewBox="0 0 149 137" fill="none" xmlns="http://www.w3.org/2000/svg">
<path d="M141.019 2.58601C139.573 -0.738372 135.442 -0.871348 133.712 2.26687C125.708 16.6016 111.377 25.5375 95.0066 25.5375H74.3499C46.9798 25.5375 24.7739 48.4093 24.7739 76.6001C24.7739 78.4617 24.9804 80.2436 25.1612 82.0521C41.6349 69.8981 65.4159 59.5792 99.1379 59.5792C101.41 59.5792 103.269 61.4941 103.269 63.8344C103.269 66.1748 101.41 68.0896 99.1379 68.0896C34.2243 68.0896 6.69929 109.073 0.605573 124.471C-1.0986 128.806 0.915423 133.753 5.12422 135.535C9.35884 137.343 14.1615 135.242 15.9173 130.934C16.3046 129.976 21.3139 118.195 34.4825 106.839C42.8485 118.514 58.7541 129.657 79.6432 127.37C120.182 124.338 148.714 86.8923 148.714 41.0425C148.714 27.6917 145.925 13.8623 141.019 2.58601Z" fill="white"/>
</svg>
