<svg width="70"  viewBox="0 0 107 122" fill="none" xmlns="http://www.w3.org/2000/svg">
<path d="M94.7335 53.2519H89.0495V36.1352C89.0495 16.2133 72.8974 0 53.0508 0C33.2041 0 17.052 16.2133 17.052 36.1352V53.2519H11.368C5.09193 53.2519 0 58.3632 0 64.6631V110.308C0 116.607 5.09193 121.719 11.368 121.719H94.7335C101.01 121.719 106.102 116.607 106.102 110.308V64.6631C106.102 58.3632 101.01 53.2519 94.7335 53.2519ZM70.1028 53.2519H35.9987V36.1352C35.9987 26.6973 43.6485 19.0185 53.0508 19.0185C62.4531 19.0185 70.1028 26.6973 70.1028 36.1352V53.2519Z" fill="white"/>
<rect x="43.2646" y="77.911" width="19.3949" height="20.6069" rx="7" fill="#26582A"/>
</svg>
