<svg width="1" height="1" viewBox="0 0 23 18" fill="none" xmlns="http://www.w3.org/2000/svg">
<path d="M20.9512 2.00819C20.9512 2.00819 19.2129 2.97873 18.2463 3.25382C17.7275 2.69004 17.038 2.29044 16.2711 2.10908C15.5042 1.92772 14.6969 1.97334 13.9583 2.23977C13.2197 2.5062 12.5854 2.98059 12.1415 3.59878C11.6974 4.21697 11.465 4.94912 11.4756 5.69623V6.51036C9.96173 6.54746 8.46172 6.23015 7.10907 5.58668C5.75641 4.94321 4.59314 3.99357 3.72283 2.82233C3.72283 2.82233 0.277166 10.1496 8.02992 13.4061C6.25586 14.5442 4.14248 15.1149 2 15.0344C9.75275 19.1051 19.2283 15.0344 19.2283 5.6718C19.2276 5.44503 19.2045 5.21881 19.1594 4.99607C20.0386 4.17663 20.9512 2.00819 20.9512 2.00819Z" stroke="#484848" stroke-width="2.5" stroke-linecap="round" stroke-linejoin="round"/>
</svg>
